<?xml version="1.0" encoding="utf-8"?>
<!-- Generator: Adobe Illustrator 22.1.0, SVG Export Plug-In . SVG Version: 6.00 Build 0)  -->
<svg version="1.1" id="Livello_1" xmlns="http://www.w3.org/2000/svg" xmlns:xlink="http://www.w3.org/1999/xlink" x="0px" y="0px"
	 viewBox="0 0 74.9 165.2" style="enable-background:new 0 0 74.9 165.2;" xml:space="preserve" width="24" height="24">
<style type="text/css">
	.st0{fill:#0066CC;}
</style>
<g>
	<g>
		<path class="st0" d="M61.4,85.3c0-0.1,0-0.2,0-0.3c-1.1-3.8-2.8-7-8.9-6.6c-5.3,0.4-6.6,4.3-6.7,9.9c0,0.3-0.5,0.2-0.5,0v-9.4
			c0-4.4-3.5-8.1-8-8.1s-7.7,1.9-8.1,6.9c-0.1,1.3,0,8.3-0.3,12.5c0,0.5-0.7,0.4-0.7,0l0.2-46.1c0-4.5-3.7-8.2-8.3-8.1
			c-4.4,0.1-7.8,3.9-7.8,8.2v50.4c-3.4,2.6-8.4,4-7.3,12.6c0.8,6.2,2.7,21.1,5.2,26.7c1.6,3.5,6.2,6.8,10.1,6.8h43.8
			c4.3,0,6.8-3,8.9-7.8c2.4-5.6,1.8-38.1,1.8-38.1c0.3-4-1.3-8.8-6.4-9.6h-0.2c-3.3,0-5.2,1.1-6.6,4.5c-0.1,0.2-0.3,0.1-0.3-0.1
			L61.4,85.3z"/>
		<path class="st0" d="M71.5,159.5v-10.2c0-1.5-0.7-2.9-1.8-4c-1-0.9-2.4-1.5-3.9-1.6l0,0H20.1l0,0c-1.5,0.1-2.8,0.6-3.9,1.6
			c-1.2,1.1-1.8,2.5-1.8,4v10.2c0,1.5,0.6,2.8,1.6,3.8c1.1,1.1,2.7,1.8,4.5,1.8h44.9c1.6,0,3.1-0.6,4.3-1.6S71.5,161.1,71.5,159.5z"
			/>
		<path class="st0" d="M4.8,31.5c-0.9,0-1.9-0.5-2.4-1.4C0.8,27.3,0,23.8,0,19.9C0,14.1,2.1,9.3,6.2,5.5C10.3,1.9,15.1,0,20.5,0
			c5.2,0,9.8,1.7,13.9,5c4.2,3.5,6.3,8.4,6.3,14.9c0,3.8-0.8,7.2-2.3,10.1c-0.7,1.3-2.3,1.8-3.7,1.1c-1.3-0.7-1.8-2.3-1.1-3.7
			c1.1-2.1,1.7-4.6,1.7-7.5c0-4.8-1.4-8.3-4.3-10.7c-3.1-2.5-6.5-3.8-10.4-3.8c-4.1,0-7.6,1.4-10.7,4.1c-3,2.7-4.5,6.1-4.5,10.3
			c0,3,0.6,5.6,1.7,7.6c0.7,1.3,0.3,2.9-1,3.7C5.7,31.4,5.2,31.5,4.8,31.5z"/>
		<path class="st0" d="M20.4,27.7c-2.1,0-4-0.7-5.5-2s-2.3-3.2-2.3-5.6c0-2.2,0.8-4,2.3-5.4c1.6-1.4,3.4-2.1,5.4-2.1
			s3.7,0.6,5.3,1.9c1.5,1.3,2.3,3.1,2.3,5.6c0,2.4-0.7,4.2-2.2,5.5C24.2,27,22.5,27.7,20.4,27.7z"/>
	</g>
</g>
</svg>
