<?xml version="1.0" encoding="UTF-8" standalone="no"?>
<!DOCTYPE svg PUBLIC "-//W3C//DTD SVG 1.1//EN" "http://www.w3.org/Graphics/SVG/1.1/DTD/svg11.dtd">
<svg version="1.1" xmlns="http://www.w3.org/2000/svg" xmlns:xlink="http://www.w3.org/1999/xlink" preserveAspectRatio="xMidYMid meet" viewBox="0 0 24 24" width="24" height="24"><defs><path d="M8.57 6.31C8.57 4.93 9.69 3.81 11.07 3.81C12.45 3.81 13.57 4.93 13.57 6.31C13.57 6.68 13.57 9.68 13.57 10.05C14.78 9.24 15.57 7.87 15.57 6.31C15.57 3.82 13.56 1.81 11.07 1.81C8.58 1.81 6.57 3.82 6.57 6.31C6.57 7.87 7.36 9.24 8.57 10.05C8.57 9.3 8.57 6.68 8.57 6.31ZM13.87 12.42C13.7 12.35 13.52 12.31 13.33 12.31C13.28 12.31 13.02 12.31 12.57 12.31C12.57 8.71 12.57 6.71 12.57 6.31C12.57 5.48 11.9 4.81 11.07 4.81C10.24 4.81 9.57 5.48 9.57 6.31C9.57 7.38 9.57 15.98 9.57 17.05C5.97 16.29 6.03 16.3 5.9 16.3C5.59 16.3 5.31 16.43 5.11 16.63C5.06 16.68 4.79 16.95 4.32 17.43C7.28 20.39 8.93 22.04 9.26 22.37C9.53 22.64 9.91 22.81 10.32 22.81C11 22.81 16.43 22.81 17.11 22.81C17.86 22.81 18.44 22.26 18.55 21.53C18.62 21 19.22 16.79 19.3 16.26C19.31 16.19 19.32 16.12 19.32 16.06C19.32 15.44 18.94 14.9 18.41 14.68C17.5 14.23 14.32 12.65 13.87 12.42Z" id="a2RgFHaamE"></path></defs><g><g><g><use xlink:href="#a2RgFHaamE" opacity="1" fill="#0066cc" fill-opacity="1"></use><g><use xlink:href="#a2RgFHaamE" opacity="1" fill-opacity="0" stroke="#000000" stroke-width="1" stroke-opacity="0"></use></g></g></g></g></svg>